<?xml version="1.0" encoding="utf-8"?>
<!-- Generator: Adobe Illustrator 21.1.0, SVG Export Plug-In . SVG Version: 6.00 Build 0)  -->
<svg version="1.1" id="Layer_1" xmlns="http://www.w3.org/2000/svg" xmlns:xlink="http://www.w3.org/1999/xlink" x="0px" y="0px"
	 viewBox="0 0 333.3 379" style="enable-background:new 0 0 333.3 379;" xml:space="preserve">
<style type="text/css">
	.st0{fill:#FFFFFF;}
	.st1{fill:#DADBDC;}
</style>
<g>
	<polygon class="st1" points="95,167.5 88.8,183.6 166.6,283.3 244.5,183.6 238.3,167.5 166.6,249.9 	"/>
	<polygon class="st1" points="166.6,202.5 106.7,136.9 100.5,153.2 166.6,235.6 232.8,153.2 226.5,136.9 	"/>
	<polygon class="st1" points="278.7,138.3 259.6,118.4 275.6,97.7 230.5,77.2 255.1,100.3 249.3,107.7 217.3,74.4 254.4,47.8
		196.4,70.4 259.4,139.6 252.2,149.1 201.7,85.3 259,184.2 166.6,297.8 74.3,184.2 131.5,85.3 81.1,149.1 73.9,139.6 136.8,70.4
		78.8,47.8 115.9,74.4 83.9,107.7 78.2,100.3 102.7,77.2 57.6,97.7 73.6,118.4 54.5,138.3 72.2,161.7 56.2,184.6 166.6,331.2
		277,184.6 261,161.7 	"/>
</g>
</svg>
