<?xml version="1.0" encoding="utf-8"?>
<!-- Generator: Adobe Illustrator 21.1.0, SVG Export Plug-In . SVG Version: 6.00 Build 0)  -->
<svg version="1.1" id="Layer_1" xmlns="http://www.w3.org/2000/svg" xmlns:xlink="http://www.w3.org/1999/xlink" x="0px" y="0px"
	 viewBox="0 0 333.3 379" style="enable-background:new 0 0 333.3 379;" xml:space="preserve">
<style type="text/css">
	.st0{fill:#1D1C18;}
	.st1{fill:#FFFFFF;}
	.st2{fill:#DADBDC;}
</style>
<rect x="-4" y="-5.8" class="st0" width="341.3" height="390.7"/>
<g>
	<path class="st1" d="M-167.3,309.3l-0.2,0.3C-167.4,309.5-167.4,309.4-167.3,309.3L-167.3,309.3z"/>
	<path class="st1" d="M-38.9,309.7c-0.1-0.1-0.2-0.3-0.3-0.4l0.1,0C-39,309.4-38.9,309.5-38.9,309.7z"/>
</g>
<g>
	<polygon class="st2" points="95,167.5 88.8,183.6 166.6,283.3 244.5,183.6 238.3,167.5 166.6,249.9 	"/>
	<polygon class="st2" points="166.6,202.5 106.7,136.9 100.5,153.2 166.6,235.6 232.8,153.2 226.5,136.9 	"/>
	<polygon class="st2" points="278.7,138.3 259.6,118.4 275.6,97.7 230.5,77.2 255.1,100.3 249.3,107.7 217.3,74.4 254.4,47.8 
		196.4,70.4 259.4,139.6 252.2,149.1 201.7,85.3 259,184.2 166.6,297.8 74.3,184.2 131.5,85.3 81.1,149.1 73.9,139.6 136.8,70.4 
		78.8,47.8 115.9,74.4 83.9,107.7 78.2,100.3 102.7,77.2 57.6,97.7 73.6,118.4 54.5,138.3 72.2,161.7 56.2,184.6 166.6,331.2 
		277,184.6 261,161.7 	"/>
</g>
</svg>
